<?xml version="1.0" encoding="UTF-8"?>
<svg id="_Слой_2" data-name="Слой 2" xmlns="http://www.w3.org/2000/svg" viewBox="0 0 133.37 96.27">
  <defs>
    <style>
      .cls-1 {
        fill: #fff;
      }

      .cls-2 {
        fill: #ca1f4d;
      }

      .cls-3 {
        fill: #209f49;
      }

      .cls-4 {
        fill: #257eb8;
      }
    </style>
  </defs>
  <g id="Layer_1" data-name="Layer 1">
    <g>
      <g>
        <rect class="cls-3" x="0" y="51.45" width="31.59" height="44.83"/>
        <rect class="cls-4" x="31.49" y="51.45" width="94.14" height="44.83"/>
        <path class="cls-2" d="M118.81,6.51V1.48c0-.82-.67-1.48-1.49-1.48h-14.78c-.82,0-1.49.66-1.49,1.48v5.03h-13.53V1.48c0-.82-.67-1.48-1.49-1.48h-14.78c-.82,0-1.49.66-1.49,1.48v5.03h-13.72V1.48c0-.82-.66-1.48-1.49-1.48h-14.78c-.82,0-1.49.66-1.49,1.48v5.03h-13.72V1.48c0-.82-.67-1.48-1.49-1.48h-14.78c-.82,0-1.49.66-1.49,1.48v5.03H0v45.53h125.63V6.51h-6.82Z"/>
      </g>
      <path class="cls-1" d="M17.94,21.86c0-.05-.03-.08-.08-.08h-1.98v12.91h1.98c.05,0,.08-.03.08-.08v-12.75ZM7.47,41.1V8.86h8.41v6.45h6.27c2.8,0,4.21,1.09,4.21,3.27v19.32c0,2.12-1.4,3.19-4.21,3.19H7.47Z"/>
      <path class="cls-1" d="M38.89,25.57c0,.05-.03.08-.08.08h-1.98v-3.87h1.98c.05,0,.08.03.08.08v3.71ZM47.39,42.71c-.05,0-.08-.03-.08-.08v-12.3c0-1.24-.7-1.95-2.1-2.14,1.38-.16,2.06-.86,2.06-2.1v-7.5c0-2.18-1.39-3.27-4.17-3.27h-14.68v25.78h8.41v-10.33h1.98c.05,0,.08.03.08.08v15.09c0,2.12,1.4,3.19,4.21,3.19h14.72v-6.41h-10.44Z"/>
      <path class="cls-1" d="M64.01,41.1c-2.8,0-4.21-1.06-4.21-3.19v-19.32c0-2.18,1.4-3.27,4.21-3.27h10.48c2.8,0,4.21,1.09,4.21,3.27v7.63h-8.41v-4.36c0-.05-.03-.08-.08-.08h-1.9c-.05,0-.08.03-.08.08v12.75c0,.05.03.08.08.08h1.9c.05,0,.08-.03.08-.08v-6.01h8.41v9.32c0,2.12-1.4,3.19-4.21,3.19h-10.48Z"/>
      <polygon class="cls-1" points="91.59 41.1 88.84 34.2 88.84 41.1 80.71 41.1 80.71 15.32 88.84 15.32 88.84 21.9 91.35 15.32 100.21 15.32 94.43 27.74 100.45 41.1 91.59 41.1"/>
      <path class="cls-1" d="M105.55,41.1c-2.8,0-4.21-1.06-4.21-3.19v-4.84h8.41v1.53c0,.05.03.08.08.08h1.9c.05,0,.08-.03.08-.08v-3.07c0-.05-.03-.08-.08-.08h-6.19c-2.8,0-4.21-1.09-4.21-3.27v-9.6c0-2.18,1.4-3.27,4.21-3.27h10.48c2.8,0,4.21,1.09,4.21,3.27v4.76h-8.41v-1.49c0-.05-.03-.08-.08-.08h-1.9c-.05,0-.08.03-.08.08v3.06c0,.05.03.08.08.08h6.19c2.8,0,4.21,1.06,4.21,3.19v9.72c0,2.12-1.4,3.19-4.21,3.19h-10.48Z"/>
      <rect class="cls-1" x="49.37" y="23.55" width="8.41" height="17.55"/>
      <rect class="cls-1" x="49.37" y="15.32" width="8.41" height="6.27"/>
      <polygon class="cls-1" points="16.92 91.23 16.92 83.28 5.33 83.28 5.33 62.69 14.64 62.69 14.64 76.13 16.92 76.13 16.92 62.69 26.24 62.69 26.24 76.13 28.61 76.13 28.61 83.28 26.24 83.28 26.24 91.23 16.92 91.23"/>
      <polygon class="cls-1" points="51.55 91.23 48.5 83.59 48.5 91.23 39.5 91.23 39.5 62.69 48.5 62.69 48.5 69.97 51.28 62.69 61.08 62.69 54.68 76.44 61.35 91.23 51.55 91.23"/>
      <path class="cls-1" d="M85.58,69.83h-2.19c-.06,0-.09.03-.09.09v14.11c0,.06.03.09.09.09h2.19v-14.29ZM78.64,91.23c-1.61,0-2.79-.29-3.54-.87-.75-.58-1.12-1.47-1.12-2.66v-21.39c0-2.41,1.55-3.62,4.66-3.62h6.94v-7.15h9.31v35.69h-16.26Z"/>
      <polygon class="cls-1" points="97.09 91.23 97.09 83.9 107.07 69.83 97.09 69.83 97.09 62.69 118 62.69 118 69.34 108.32 84.13 118 84.13 118 91.23 97.09 91.23"/>
      <rect class="cls-1" x="62.43" y="62.69" width="9.31" height="7.22"/>
      <rect class="cls-1" x="62.43" y="71.87" width="9.31" height="19.36"/>
      <path class="cls-4" d="M129.98,92.57h.46c.28,0,.73,0,.73-.49,0-.11-.04-.32-.23-.41-.12-.05-.17-.05-.62-.05h-.35v.95ZM130.46,90.98c.37,0,.62,0,.86.1.44.16.62.59.62.95,0,.69-.57.89-.69.94.22.12.38.22.46.78.07.49.12.86.3,1.21h-.88c-.11-.25-.15-.54-.19-.86-.1-.73-.14-.84-.77-.86h-.19v1.72h-.77v-3.98h1.25ZM130.51,90.16c-1.48,0-2.63,1.28-2.63,2.84s1.17,2.84,2.62,2.84,2.61-1.27,2.62-2.84c0-1.55-1.11-2.85-2.61-2.85M130.49,96.13c-1.5,0-2.87-1.27-2.87-3.13s1.32-3.13,2.87-3.13c1.67,0,2.89,1.43,2.88,3.14,0,1.73-1.26,3.11-2.88,3.11"/>
    </g>
  </g>
</svg>